<?xml version="1.0" encoding="utf-8"?>
<!-- Generator: Adobe Illustrator 25.4.1, SVG Export Plug-In . SVG Version: 6.00 Build 0)  -->
<svg version="1.1" id="f2d0d819-1d50-4c68-8678-d6061f301faf"
	 xmlns="http://www.w3.org/2000/svg" xmlns:xlink="http://www.w3.org/1999/xlink" x="0px" y="0px" viewBox="0 0 947.2 603.7"
	 style="enable-background:new 0 0 947.2 603.7;" xml:space="preserve">
<style type="text/css">
	.st0{fill:#F2F2F2;}
	.st1{fill:#FFFFFF;}
	.st2{fill:#9E616A;}
	.st3{fill:#2F2E41;}
	.st4{fill:#E4E4E4;}
	.st5{fill:#4996FF;}
	.st6{fill:#CACACA;}
</style>
<path class="st0" d="M326.3,565.1l-29,16.8l28.6-6.9c-0.2,2.4-0.5,4.7-0.9,7c-0.1,0.6-0.2,1.2-0.4,1.9c-1,5.2-2.7,10.2-5.2,14.9
	c-0.5,0.9-1,1.7-1.5,2.5c-0.5,0.8-1,1.6-1.5,2.4h-76.9c-0.6-0.8-1.2-1.6-1.8-2.4c-5.5-7.7-7.7-17.3-6.2-26.6
	c0.3-1.9,0.7-3.8,1.2-5.6c0.5-1.9,1.1-3.7,1.8-5.6c1.2-3.2,2.7-6.3,4.4-9.3c3.5-6.3,9-12.1,15.5-17.1c3.1-2.4,6.4-4.7,9.8-6.8
	c0.6-0.4,1.3-0.8,2-1.2c1-0.6,2-1.2,3-1.8c2-1.2,4.1-2.3,6.1-3.3c0.5-0.3,1.1-0.5,1.6-0.8c4.4-2.2,8.9-4.2,13.1-6
	c0.5-0.2,1.1-0.4,1.6-0.7c8.4-3.4,17-6.4,25.7-8.8c0,0,0,0.1,0.1,0.2c0.1,0.5,0.5,1.6,0.9,3.2c1.2,4.5,3.5,13.2,5.2,23.7
	c0.1,0.6,0.2,1.2,0.3,1.7c1.5,8.9,2.3,17.8,2.4,26.8C326.3,564,326.3,564.5,326.3,565.1L326.3,565.1z"/>
<path class="st1" d="M319.5,506.7c0,0-0.1,0.5-0.3,1.4c-0.2,0.8-0.4,1.8-0.8,3.1c-1.2,4.5-3.2,12-6.2,21c-0.2,0.5-0.4,1.1-0.5,1.6
	c-2.1,6.2-4.5,13-7.3,20c-0.7,1.8-1.4,3.5-2.2,5.2c-0.2,0.5-0.4,1.1-0.7,1.6c-3.1,7.2-6.3,13.8-9.6,19.7l-0.8,1.5
	c-3.8,6.9-8.2,13.5-13.2,19.6c-0.7,0.8-1.4,1.6-2,2.4h-2.3c0.7-0.8,1.4-1.6,2.1-2.4c5.2-6.4,9.9-13.2,13.9-20.4
	c0.3-0.5,0.6-1,0.8-1.5c3.5-6.4,6.7-13.1,9.6-19.8c0.2-0.5,0.5-1,0.7-1.6c3.8-8.8,6.9-17.4,9.4-25c0.2-0.5,0.4-1.1,0.5-1.6
	c3.7-11.2,6-20,6.9-23.5c0.1-0.5,0.2-0.9,0.3-1.2c0.1-0.3,0.1-0.4,0.1-0.4l0.8,0.2h0L319.5,506.7z"/>
<path class="st1" d="M325.1,535c-0.5,0-1-0.1-1.5-0.1c-3.9-0.4-7.8-1.3-11.4-2.7c-0.5-0.2-1.1-0.4-1.6-0.7c-1.5-0.6-2.9-1.3-4.3-2.1
	c-5.7-3.2-10.7-7.6-14.6-12.9c-0.1-0.2-0.3-0.3-0.4-0.5c-0.5,0.2-1,0.4-1.6,0.7c0.1,0.2,0.2,0.3,0.4,0.5c4,5.7,9.3,10.3,15.4,13.7
	c1.5,0.8,3,1.6,4.6,2.2c0.5,0.2,1.1,0.4,1.6,0.6c3.9,1.5,8.1,2.5,12.2,2.9c0.5,0,1,0.1,1.5,0.1C325.3,536.1,325.2,535.6,325.1,535z"
	/>
<path class="st1" d="M326.3,563.4c-8.3,0.8-16.7-0.8-24.2-4.5c-0.5-0.2-1-0.5-1.6-0.8c-0.2-0.1-0.3-0.2-0.5-0.2
	c-12.9-7.2-21.5-20.1-23.1-34.7c0-0.2,0-0.3-0.1-0.5c-0.5,0.3-1.1,0.5-1.6,0.8c0,0.2,0,0.3,0.1,0.5c1.9,14.9,10.8,28.1,23.9,35.4
	c0.2,0.1,0.4,0.2,0.6,0.3c0.5,0.3,1,0.5,1.6,0.8c7.7,3.8,16.3,5.4,24.8,4.6c0.4,0,0.9-0.1,1.3-0.1c0-0.6,0-1.1,0-1.7
	C327.2,563.3,326.8,563.4,326.3,563.4z"/>
<path class="st1" d="M325,582c-9,3-18.7,3-27.8,0.2c-1.8-0.6-3.6-1.2-5.3-2c-0.5-0.2-1.1-0.5-1.6-0.8c-0.6-0.3-1.1-0.6-1.7-0.9
	c-15.3-8.5-24.3-25-23.4-42.4c0.1-2.4,0.4-4.8,1-7.2c0-0.2,0.1-0.3,0.1-0.5c-0.7,0.4-1.3,0.8-2,1.2c0,0.2-0.1,0.3-0.1,0.4
	c-0.6,3.2-0.8,6.5-0.7,9.8c0.4,16.7,9.7,31.9,24.3,40c0.6,0.3,1.1,0.6,1.7,0.9c0.5,0.3,1.1,0.5,1.6,0.8c10.5,4.8,22.5,5.6,33.5,2.2
	c0.4-0.1,0.7-0.2,1.1-0.3c0.1-0.6,0.3-1.3,0.4-1.9C325.7,581.8,325.3,581.9,325,582z"/>
<rect x="200.2" y="246.5" class="st2" width="56" height="56"/>
<polygon class="st2" points="165.3,581.2 176.4,581.2 181.6,538.7 165.3,538.7 "/>
<path class="st3" d="M195.6,593.6L179,582.2v-7.5l-1.9,0.1l-11.8,0.7l-3.7,0.2l-2.1,25.5l-0.1,0.8h7.8l0.2-0.8l1.2-6.5l3.2,6.5
	l0.4,0.8H193c2.6,0,4.7-2.1,4.7-4.7C197.6,596,196.9,594.5,195.6,593.6z"/>
<polygon class="st2" points="229.9,574.2 240.5,577.3 257.3,537.8 241.6,533.3 "/>
<path class="st3" d="M255.5,594.5l-12.8-15.6l2.1-7.2l-1.8-0.4l-10.2-2.3l-1.3-0.3l-3.6-0.8l-9.4,24.8l7.5,2.2l3.4-6.7l1.4,8.1
	l4.7,1.4l12.9,3.7l2.3,0.7c2.5,0.7,5.1-0.7,5.8-3.2C256.8,597.3,256.5,595.7,255.5,594.5L255.5,594.5z"/>
<path class="st4" d="M944,0H359.5c-1.8,0-3.3,1.5-3.3,3.3v19.2c0,1.8,1.5,3.3,3.3,3.3H944c1.8,0,3.3-1.5,3.3-3.3V3.3
	C947.3,1.5,945.8,0,944,0z"/>
<circle id="b5b16cf8-67a2-4f26-b1bf-3e43b6764a92" class="st1" cx="375.2" cy="12" r="4.6"/>
<circle id="b66c556c-a3ce-485d-a169-682ae89102b6" class="st1" cx="392.9" cy="12" r="4.6"/>
<circle id="b9ccba63-6bb8-47f6-85e8-d2b1a1d873e2" class="st1" cx="410.5" cy="12" r="4.6"/>
<path class="st1" d="M926.7,5.8h-20.3c-0.8,0-1.5,0.7-1.5,1.5c0,0.8,0.7,1.5,1.5,1.5c0,0,0,0,0,0h20.3c0.8,0,1.5-0.7,1.5-1.5
	C928.2,6.4,927.5,5.8,926.7,5.8C926.7,5.8,926.7,5.8,926.7,5.8z"/>
<path class="st1" d="M926.7,11.4h-20.3c-0.8,0-1.5,0.7-1.5,1.5c0,0.8,0.7,1.5,1.5,1.5c0,0,0,0,0,0h20.3c0.8,0,1.5-0.7,1.5-1.5
	C928.2,12.1,927.5,11.4,926.7,11.4C926.7,11.4,926.7,11.4,926.7,11.4z"/>
<path class="st1" d="M926.7,17h-20.3c-0.8,0-1.5,0.7-1.5,1.5c0,0.8,0.7,1.5,1.5,1.5c0,0,0,0,0,0h20.3c0.8,0,1.5-0.7,1.5-1.5
	C928.2,17.7,927.5,17,926.7,17C926.7,17,926.7,17,926.7,17z"/>
<path class="st4" d="M924.4,81.5H773c-2.2,0-4,1.8-4,4v61.5c0,2.2,1.8,4,4,4h151.4c2.2,0,4-1.8,4-4V85.5
	C928.4,83.3,926.6,81.5,924.4,81.5z"/>
<path class="st4" d="M910,170.8H787.4c-2.6,0-4.8,2.1-4.8,4.8c0,2.6,2.1,4.8,4.8,4.8H910C916.2,180.5,916.1,170.7,910,170.8z"/>
<path class="st4" d="M910,192.7H787.4c-2.6,0-4.8,2.1-4.8,4.8c0,2.6,2.1,4.8,4.8,4.8H910C916.2,202.3,916.1,192.6,910,192.7z"/>
<path class="st4" d="M910,214.6H787.4c-2.6,0-4.8,2.1-4.8,4.8c0,2.6,2.1,4.8,4.8,4.8H910C916.2,224.2,916.1,214.5,910,214.6z"/>
<path class="st4" d="M725.4,81.5H574c-2.2,0-4,1.8-4,4v61.5c0,2.2,1.8,4,4,4h151.4c2.2,0,4-1.8,4-4V85.5
	C729.4,83.3,727.6,81.5,725.4,81.5z"/>
<path class="st4" d="M711,170.8H588.4c-2.6,0-4.8,2.1-4.8,4.8c0,2.6,2.1,4.8,4.8,4.8H711C717.2,180.5,717.1,170.7,711,170.8z"/>
<path class="st4" d="M711,192.7H588.4c-2.6,0-4.8,2.1-4.8,4.8c0,2.6,2.1,4.8,4.8,4.8H711C717.2,202.3,717.1,192.6,711,192.7z"/>
<path class="st4" d="M711,214.6H588.4c-2.6,0-4.8,2.1-4.8,4.8c0,2.6,2.1,4.8,4.8,4.8H711C717.2,224.2,717.1,214.5,711,214.6z"/>
<path class="st2" d="M345.7,197.7c-0.2,0.6-0.3,1.2-0.4,1.7l-62-11l-53.4-28.8c-7.3-4-16.5-1.2-20.4,6.1c-3.6,6.6-1.7,14.8,4.3,19.3
	h0c10,7.3,21,13.1,32.7,17l38.7,13l67.8-4.3c5.4,1.2,10.7-2.3,11.9-7.7c1.2-5.4-2.3-10.7-7.7-11.9
	C352.3,190.1,347.3,192.9,345.7,197.7L345.7,197.7z"/>
<path class="st5" d="M498.2,197.9h-193c-2.8,0-5.1,2.3-5.1,5.1v78.3c0,2.8,2.3,5.1,5.1,5.1h193c2.8,0,5.1-2.3,5.1-5.1V203
	C503.2,200.2,501,197.9,498.2,197.9z"/>
<path class="st5" d="M479.8,311.8H323.5c-3.4,0-6.1,2.7-6.1,6.1c0,3.4,2.7,6.1,6.1,6.1h156.3C487.7,324.1,487.6,311.6,479.8,311.8z"
	/>
<path class="st5" d="M479.8,339.7H323.5c-3.4,0-6.1,2.7-6.1,6.1c0,3.4,2.7,6.1,6.1,6.1h156.3C487.7,352,487.6,339.6,479.8,339.7z"/>
<path class="st5" d="M479.8,367.6H323.5c-3.4,0-6.1,2.7-6.1,6.1s2.7,6.1,6.1,6.1c0,0,0,0,0,0h156.3
	C487.7,379.9,487.6,367.5,479.8,367.6z"/>
<circle class="st2" cx="231.3" cy="117.6" r="29.7"/>
<path class="st3" d="M236.2,81.5H217c-12.6,0-22.8,11.5-22.8,25.6c-9.5,9.5-6.6,21.5,0.9,34.4c13.6,1.7,26.9,5.3,39.5,10.6l1.8-7.7
	l3.5,10.1c3.1,1.5,6.3,3.2,9.4,5c-3.6-17-5.1-33.9-2.6-47h6.5v-7.1l2.2,7.1h11.8l0,0C267.3,95.4,253.4,81.5,236.2,81.5
	C236.3,81.5,236.3,81.5,236.2,81.5z"/>
<path class="st6" d="M234.2,155.5l-36-1.6l-1,3.7c-8,30.2-9.2,61.8-3.6,92.6l0,0l0,0c2.2,2,3.1,5.1,2.3,8l-0.5,2.1l0,0.1
	c1.7,2.7,2.3,5.9,1.6,9l0,0l1.8,9.9l58.2-25.7l13-45L234.2,155.5z"/>
<path class="st2" d="M323.4,250.4c-0.4,0.4-0.8,0.9-1.1,1.4L269.8,217l-37.5-47.7c-5.1-6.5-14.6-7.7-21.2-2.5
	c-5.9,4.6-7.5,12.9-3.7,19.4l0,0c6.2,10.7,14.1,20.4,23.3,28.6l30.3,27.3l63.9,23c4.5,3.2,10.7,2.2,14-2.3c3.2-4.5,2.2-10.7-2.3-14
	C332.4,246,326.8,246.6,323.4,250.4L323.4,250.4z"/>
<path class="st4" d="M437.5,150.7c-15.9,0-28.7-12.9-28.7-28.7s12.9-28.7,28.7-28.7s28.7,12.9,28.7,28.7S453.4,150.7,437.5,150.7z"
	/>
<path class="st1" d="M448.9,119.1h-8.5v-8.5c0-1.6-1.3-2.8-2.8-2.8c-1.6,0-2.8,1.3-2.8,2.8v8.5h-8.5c-1.6,0-2.8,1.3-2.8,2.8
	c0,1.6,1.3,2.8,2.8,2.8h8.5v8.5c0,1.6,1.3,2.8,2.8,2.8c1.6,0,2.8-1.3,2.8-2.8v-8.5h8.5c1.6,0,2.8-1.3,2.8-2.8
	S450.4,119.1,448.9,119.1C448.9,119.1,448.9,119.1,448.9,119.1L448.9,119.1z"/>
<path class="st3" d="M294.2,471.5c1.9-5,1.3-10.6-1.6-15.1l-25.4-131.9l-10-50h-60c0,0-37.5,41.5-29.5,94.5l-2.2,74.6
	c-2.1,5.1-2.6,10.8-1.5,16.2l0.9,4.2l-0.3,0.6c-3.3,6.1-3.4,13.5-0.3,19.8l-2.5,84.5l18-1l26.5-98.5l17.5-88.5l29.5,68.5l1,16
	l-0.5,14.1l-23,82.4l19.5,7.5L294.2,471.5z"/>
<path class="st6" d="M439.7,602.5c0,0.7-0.5,1.2-1.2,1.2H1.2c-0.7,0-1.2-0.5-1.2-1.2s0.5-1.2,1.2-1.2l0,0h437.3
	C439.1,601.3,439.7,601.8,439.7,602.5C439.7,602.5,439.7,602.5,439.7,602.5z"/>
</svg>
