<?xml version="1.0" encoding="utf-8"?>
<!-- Generator: Adobe Illustrator 25.4.1, SVG Export Plug-In . SVG Version: 6.00 Build 0)  -->
<svg version="1.1" id="a115e649-e6de-4a08-abb2-c2a69b6ac895"
	 xmlns="http://www.w3.org/2000/svg" xmlns:xlink="http://www.w3.org/1999/xlink" x="0px" y="0px" viewBox="0 0 892.6 540.8"
	 style="enable-background:new 0 0 892.6 540.8;" xml:space="preserve">
<style type="text/css">
	.st0{fill:#FF6584;}
	.st1{fill:#E6E6E6;}
	.st2{fill:#4996FF;}
	.st3{fill:#3F3D56;}
	.st4{fill:#FFFFFF;}
	.st5{fill:#FFB8B8;}
	.st6{fill:#2F2E41;}
</style>
<circle class="st0" cx="73.9" cy="71.3" r="46"/>
<ellipse class="st1" cx="444" cy="522.8" rx="444" ry="18"/>
<circle class="st2" cx="113" cy="184.2" r="113"/>
<polygon class="st3" points="123.9,524.6 100.7,524.6 111.3,167.2 "/>
<polygon class="st3" points="113.3,234.9 138.2,200.6 113,243.4 110.3,238.7 "/>
<polygon class="st3" points="110.6,269.6 85.8,235.3 111,278.2 113.7,273.4 "/>
<polygon class="st3" points="827.5,525 804.4,525 814.9,167.6 "/>
<polygon class="st3" points="817,235.3 841.8,200.9 816.6,243.8 813.9,239.1 "/>
<polygon class="st3" points="814.2,270 789.4,235.6 814.6,278.5 817.3,273.8 "/>
<circle class="st3" cx="459.1" cy="314.4" r="210.5"/>
<circle class="st4" cx="459.1" cy="314.4" r="193.1"/>
<circle class="st3" cx="458.4" cy="315.1" r="25.8"/>
<rect x="452.8" y="131.1" class="st3" width="11.2" height="20.9"/>
<rect x="452.8" y="478.2" class="st3" width="11.2" height="20.9"/>
<rect x="274.3" y="309.5" class="st3" width="20.9" height="11.2"/>
<rect x="621.5" y="309.5" class="st3" width="20.9" height="11.2"/>
<polygon class="st3" points="450.9,326.3 460.5,304.5 579.9,370.6 "/>
<rect x="431.9" y="53" class="st3" width="54.4" height="62.7"/>
<ellipse class="st3" cx="459.1" cy="53" rx="62.7" ry="17.4"/>
<path class="st5" d="M576.5,351.7l-3.5,4.9c0,0-16,18.8-16.7,9.8s11.8-15.3,11.8-15.3l7-4.2L576.5,351.7z"/>
<path class="st5" d="M675.7,368.1l2.9,5.2c0,0,10.1,22.5,1.7,19.3s-8.8-17.3-8.8-17.3l-0.8-8.1L675.7,368.1z"/>
<circle class="st6" cx="660" cy="254" r="21.2"/>
<path class="st5" d="M658.1,428.4l2.8,18.1v5.6h16v-7c0,0,0.7-12.5-2.1-16S658.1,428.4,658.1,428.4z"/>
<path class="st5" d="M629.5,428.4l2.8,18.1v5.6h16v-7c0,0,0.7-12.5-2.1-16S629.5,428.4,629.5,428.4z"/>
<path class="st2" d="M640.3,282.8c0,0-6.2,3.2-2,10.6s28.9,83.9,28.9,83.9l14.3-4l-12.6-48.4l-7.2-30.4L640.3,282.8z"/>
<circle class="st5" cx="657.7" cy="260" r="16"/>
<path class="st5" d="M665,262.5l-2.1,32.8l-14.6-10.5c0,0,4.9-19.5,3.5-20.9L665,262.5z"/>
<path class="st2" d="M665,292.4l-15.8-11.7c0,0-7.2-3-9.3,0.5s-12.5,55.1-7,64.8c0,0,30,6.3,36.2,2.8l2.8-18.1
	c0,0,3.5-11.2-2.1-18.1L665,292.4z"/>
<path class="st2" d="M644.1,282c0,0-5.6-4.2-10.5,2.8s-63.4,62-63.4,62L580,358l38.3-32.1l24.4-19.5L644.1,282z"/>
<path class="st6" d="M669.6,348.5c0,0-34.5-6.6-38-1.7l-0.7,7.7c0,0-7.7,14.6-3.5,38.3s1.4,38.3,1.4,38.3s18.8-2.1,32.8,0s16,0,16,0
	L669.6,348.5z"/>
<path class="st6" d="M678.3,449.3l-20.2,0.7l7,52.3c0,0-5.6,22.3,0.7,23.7c4.4,0.9,8.8,1.3,13.2,1.4c0,0,6.3,6.3,13.2,5.6
	c4.6-0.6,9.1-2,13.2-4.2c0,0,1.4-4.2-3.5-5.6s-18.1-5.6-20.9-20.2L678.3,449.3z"/>
<path class="st6" d="M649.7,449.3l-20.2,0.7l7,52.3c0,0-5.6,22.3,0.7,23.7c4.4,0.9,8.8,1.3,13.2,1.4c0,0,6.3,6.3,13.2,5.6
	c4.6-0.6,9.1-2,13.2-4.2c0,0,1.4-4.2-3.5-5.6s-18.1-5.6-20.9-20.2L649.7,449.3z"/>
<circle class="st6" cx="667.5" cy="231.7" r="8.8"/>
<path class="st6" d="M679.2,226.9c0-4.5-3.4-8.3-7.9-8.7c0.3,0,0.6,0,0.9,0c4.9,0,8.8,3.9,8.8,8.8c0,4.8-3.9,8.8-8.8,8.8
	c-0.3,0-0.6,0-0.9,0C675.8,235.2,679.2,231.4,679.2,226.9z"/>
<ellipse class="st6" cx="657.6" cy="249.5" rx="14.6" ry="8.8"/>
<path class="st1" d="M888.1,42.2C886.7,17.5,865.6-1.3,841,0.1c-19.1,1.1-35.4,14.2-40.5,32.7c-0.5,0-1.1,0-1.6,0
	c-19.8,0-37.3,13.1-42.9,32.1c-13.2-5.8-28.6-1.9-37.5,9.3h139.4c16.7,0,30.3-13.4,30.3-30.1c0-0.4,0-0.8,0-1.2
	C888.1,42.6,888.1,42.4,888.1,42.2z"/>
<circle class="st1" cx="771.6" cy="124.2" r="12"/>
<circle class="st1" cx="807.8" cy="95.9" r="10"/>
<circle class="st1" cx="856.6" cy="150.2" r="12"/>
<circle class="st1" cx="765.6" cy="205.2" r="12"/>
<circle class="st1" cx="856.6" cy="274.2" r="12"/>
<path class="st1" d="M837.6,505.6c0-0.1,0-0.3,0-0.4c0-6.6-5.3-12-12-12c-1.7,0-3.4,0.4-5,1.1c-4.3-5-11.9-5.5-16.9-1.2
	c-3.2,2.8-4.7,7-3.9,11.1c-0.1,0-0.1,0-0.2,0c-6.6,0-12,5.4-12,12c0,6.6,5.4,12,12,12c2.7,0,5.3-0.9,7.4-2.5
	c3,5.9,10.3,8.2,16.1,5.2c1.8-0.9,3.3-2.3,4.5-4c5.4,3.9,12.9,2.7,16.7-2.6c3.9-5.4,2.7-12.9-2.6-16.7
	C840.5,506.6,839.1,505.9,837.6,505.6z"/>
<circle class="st1" cx="867.6" cy="226.2" r="5"/>
<circle class="st1" cx="835.6" cy="106.2" r="5"/>
<circle class="st1" cx="818.6" cy="230.2" r="5"/>
<circle class="st1" cx="822.6" cy="225.2" r="5"/>
<circle class="st1" cx="825.6" cy="220.2" r="5"/>
<circle class="st1" cx="813.6" cy="262.2" r="5"/>
<circle class="st1" cx="887.6" cy="318.2" r="5"/>
<circle class="st1" cx="780.6" cy="321.2" r="5"/>
<circle class="st1" cx="786.6" cy="167.2" r="5"/>
<circle class="st1" cx="809.6" cy="257.2" r="5"/>
<circle class="st1" cx="804.6" cy="249.2" r="5"/>
</svg>
