<?xml version="1.0" encoding="utf-8"?>
<!-- Generator: Adobe Illustrator 25.4.1, SVG Export Plug-In . SVG Version: 6.00 Build 0)  -->
<svg version="1.1" id="圖層_1" xmlns="http://www.w3.org/2000/svg" xmlns:xlink="http://www.w3.org/1999/xlink" x="0px" y="0px"
	 viewBox="0 0 8228.6 1711.5" style="enable-background:new 0 0 8228.6 1711.5;" xml:space="preserve">
<style type="text/css">
	.st0{fill:#1E97FF;}
	.st1{fill:none;stroke:#1E97FF;stroke-width:55;stroke-miterlimit:10;}
</style>
<g>
	<path class="st0" d="M2786,432.2v152.9h-370.2c-65.3,0-94.2,42.8-94.2,103.7c0,53.1,22.5,103.7,107,103.7h169.1
		c196.9,0,242.9,132.2,242.9,257.9c0,147.7-65.3,256.6-230,256.6h-402.3v-152.9h406.6c68.5,0,99.5-45.4,99.5-108.9
		c0-57-24.6-108.9-113.4-108.9h-168c-192.6,0-237.5-130.9-237.5-252.7c0-145.2,64.2-251.4,224.7-251.4H2786z"/>
	<path class="st0" d="M3402.3,432.2c162.6,0,232.2,121.8,232.2,261.8c0,132.2-63.1,274.8-232.2,274.8h-224.7
		c-11.8,0-18.2,6.5-18.2,22V1307h-126.3V961c0-98.5,34.2-138.7,113.4-138.7h260c71.7,0,100.6-59.6,100.6-120.5
		c0-63.5-31-116.6-99.5-116.6h-375.6V432.2H3402.3z"/>
	<path class="st0" d="M4212.3,432.2c209.7,0,326.3,145.2,326.3,439.3c0,292.9-115.6,435.5-326.3,435.5h-98.4
		c-210.8,0-326.3-142.6-326.3-435.5c0-294.2,116.6-439.3,326.3-439.3H4212.3z M4113.9,585.1c-139.1,0-200.1,85.5-200.1,286.4
		c0,199.6,59.9,282.5,200.1,282.5h98.4c139.1,0,199-82.9,199-283.8c0-199.6-59.9-285.1-199-285.1H4113.9z"/>
	<path class="st0" d="M5130.3,432.2c162.6,0,232.2,121.8,232.2,261.8c0,108.9-42.8,225.5-153,263.1l168,349.9h-140.2l-164.8-338.3
		h-188.3c-11.8,0-18.2,6.5-18.2,22V1307h-126.3V961c0-98.5,34.2-138.7,113.4-138.7h281.4c71.7,0,100.6-59.6,100.6-121.8
		s-31-115.3-100.6-115.3h-395.9V432.2H5130.3z"/>
	<path class="st0" d="M6050.5,432.2v152.9h-210.8V1307h-127.3V585.1h-210.8V432.2H6050.5z"/>
	<path class="st0" d="M6349,432.2V1307h-126.3V432.2H6349z"/>
	<path class="st0" d="M7136.6,432.2v152.9h-291c-114.5,0-148.7,66.1-148.7,147.7v82.9h435.5V961h-435.5v346h-126.3V734.2
		c0-175,74.9-302,266.4-302H7136.6z"/>
	<path class="st0" d="M7419,432.2l202.2,374.5l204.4-374.5h149.8l-291,497.7V1307h-127.3V929.9l-291-497.7H7419z"/>
</g>
<path class="st0" d="M1495.7,439.3H934.3c0,0-31.4-0.7-42.6,9c-11.2,9.7-27.6,26.1-27.6,26.1s-5.2,12.7-6.7,20.2
	c-1.5,7.5-16.4,97.8-16.4,97.8s-4.5,36.6,6.7,52.3l312.8,440.5c0,0,31.4,24.6,58.2,26.1c26.9,1.5,41.8-3.7,41.8-3.7
	s30.6-11.2,20.2-27.6c-10.5-16.4-324-451.7-324-451.7s-8.2-15.7-3.7-28.4l8.2-20.2c0,0,8.2-12.7,26.9-13.4s512.1,1.5,512.1,1.5
	S1565.8,503.5,1495.7,439.3z"/>
<path class="st0" d="M1035.1,608.3H1161c0,0,24.4,5.5,34.3,21.4c10,15.9,298.6,445.4,298.6,445.4s16.9,26.9,13.9,43.3
	c-3,16.4-16.9,104-16.9,104s-4.5,15.9-10.9,21.4s-42.3,27.9-56.2,28.4H788.2c0,0-67.7-57.7,0-123.4l563.9-1.5c0,0,23.9-4,30.4-12.4
	c6.5-8.5,7.5-12.9,6-18.9c-1.5-6-27.9-43.3-27.9-43.3l-243.4-346.9c0,0-6-12.6-18.9-12.6h-12.6c0,0-10.1-2-13.6-7
	c-3.5-5-51.9-72.8-51.9-72.8s-3.6-10.1,0-15.4c3.6-5.4,3.6-5.4,3.6-5.4S1026.2,608.3,1035.1,608.3z"/>
<circle class="st1" cx="1143.9" cy="855.8" r="671"/>
</svg>
